<svg width="33" height="31" viewBox="0 0 33 31" fill="none" xmlns="http://www.w3.org/2000/svg">
<path d="M17.5 27.7396C16.6889 27.7396 16.0313 28.3972 16.0313 29.2083C16.0313 30.0195 16.6889 30.6771 17.5 30.6771H29.25C31.1428 30.6771 32.6771 29.1427 32.6771 27.25V3.75001C32.6771 1.85728 31.1428 0.322922 29.25 0.322922H17.5C16.6889 0.322922 16.0313 0.980506 16.0313 1.79167C16.0313 2.60284 16.6889 3.26042 17.5 3.26042L29.25 3.26042C29.5204 3.26042 29.7396 3.47962 29.7396 3.75001L29.7396 27.25C29.7396 27.5204 29.5204 27.7396 29.25 27.7396H17.5Z" fill="black"/>
<path fill-rule="evenodd" clip-rule="evenodd" d="M0.364624 17.684C0.364624 19.0359 1.46059 20.1319 2.81254 20.1319H11.8455C11.8583 20.2757 11.8717 20.4194 11.8857 20.5631L11.9915 21.6517C12.1529 23.3126 13.9166 24.3073 15.4214 23.5861C18.6218 22.0523 21.7133 19.7507 24.168 17.1877C25.0771 16.2385 25.0771 14.7417 24.168 13.7926L23.9737 13.5897C21.519 11.0267 18.6218 8.92791 15.4214 7.39415C13.9166 6.67297 12.1529 7.66764 11.9915 9.32852L11.8857 10.4171C11.8717 10.5608 11.8583 10.7046 11.8455 10.8484L2.81254 10.8484C1.46059 10.8484 0.364624 11.9444 0.364624 13.2963V17.684ZM14.6667 18.4976C14.5835 17.7594 13.958 17.1944 13.2073 17.1944H3.30212L3.30212 13.7859H13.2073C13.983 13.7859 14.6249 13.1827 14.6732 12.4086C14.7087 11.8389 14.7541 11.2697 14.8094 10.7013L14.8401 10.3853C17.3954 11.7022 19.7211 13.4259 21.7255 15.4901C20.8886 16.352 19.9957 17.1545 19.0535 17.8928C17.739 18.9228 16.3285 19.8279 14.8401 20.5949L14.8094 20.279C14.7541 19.7105 14.7087 19.1413 14.6732 18.5717C14.6717 18.5468 14.6695 18.5221 14.6667 18.4976Z" fill="black"/>
</svg>
