<svg width="35" height="41" viewBox="0 0 35 41" fill="none" xmlns="http://www.w3.org/2000/svg">
<path fill-rule="evenodd" clip-rule="evenodd" d="M8.19793 17.5834C8.19793 12.446 12.3626 8.28127 17.5 8.28127C22.6374 8.28127 26.8021 12.446 26.8021 17.5834C26.8021 22.7208 22.6374 26.8854 17.5 26.8854C12.3626 26.8854 8.19793 22.7208 8.19793 17.5834ZM17.5 11.2188C13.9849 11.2188 11.1354 14.0683 11.1354 17.5834C11.1354 21.0984 13.9849 23.9479 17.5 23.9479C21.0151 23.9479 23.8646 21.0984 23.8646 17.5834C23.8646 14.0683 21.0151 11.2188 17.5 11.2188Z" fill="black"/>
<path fill-rule="evenodd" clip-rule="evenodd" d="M0.901886 15.3447C1.59578 6.92658 8.63041 0.447937 17.0771 0.447937H17.923C26.3696 0.447937 33.4042 6.92658 34.0981 15.3447C34.4709 19.8668 33.074 24.357 30.2018 27.8696L20.8154 39.349C19.1019 41.4446 15.8981 41.4446 14.1846 39.349L4.79819 27.8696C1.92598 24.357 0.529139 19.8668 0.901886 15.3447ZM17.0771 3.38544C10.1592 3.38544 4.39776 8.6915 3.82946 15.586C3.51923 19.3496 4.68178 23.0867 7.07225 26.0102L16.4587 37.4895C16.9969 38.1477 18.0031 38.1477 18.5414 37.4895L27.9278 26.0102C30.3182 23.0867 31.4808 19.3496 31.1706 15.586C30.6023 8.6915 24.8408 3.38544 17.923 3.38544H17.0771Z" fill="black"/>
</svg>
